# xmcd CD database file generated by Grip 3.3.1
# 
# Track frame offsets:
#       150
#       1750
#       23337
#       41182
#       58852
#       74808
#       94669
#       111243
#       128125
#       148040
#       164176
#       182681
#       205116
# 
# Disc length: 2755 seconds
# 
# Revision: 9
# Processed by: cddbd v1.5.2PL0 Copyright (c) Steve Scherf et al.
# Submitted via: Grip 3.3.1
# 
DISCID=bb0ac10d
DTITLE=刘若英 - 一整夜
DYEAR=2005
DGENRE=Pop
TTITLE0=序
TTITLE1=黄昏以后 天亮之前
TTITLE2=光
TTITLE3=一次幸福的机会
TTITLE4=学习忘记
TTITLE5=24楼
TTITLE6=只怪我自己
TTITLE7=别人
TTITLE8=一万遍
TTITLE9=越爱越美丽
TTITLE10=不怕死
TTITLE11=飞行中的思念
TTITLE12=待续
EXTD=YEAR: 2005
EXTT0=
EXTT1=
EXTT2=
EXTT3=
EXTT4=
EXTT5=
EXTT6=
EXTT7=
EXTT8=
EXTT9=
EXTT10=
EXTT11=
EXTT12=
PLAYORDER=
